# xmcd CD database file
#
# Track frame offsets:
#	150
#	17125
#	34530
#	50722
#	67510
#	84682
#	100875
#	118097
#	133745
#	151007
#	167392
#	183387
#	199947
#	216650
#	231977
#
# Disc length: 3318 seconds
#
# Revision: 2
# Processed by: cddbd v1.4PL0 Copyright (c) Steve Scherf et al.
# Submitted via: CDex 1.40Beta9
#
DISCID=cb0cf40f
DTITLE=Morgan Heritage - Protect us Jah
DYEAR=1997
DGENRE=Reggae
TTITLE0=Set yourself free
TTITLE1=Exalt Jah
TTITLE2=What man can say
TTITLE3=People are fighting
TTITLE4=When will we decide
TTITLE5=Mama and Papa
TTITLE6=Let's make up
TTITLE7=Africa, here we come
TTITLE8=The king is coming
TTITLE9=Whatch the heathen
TTITLE10=Let them talk
TTITLE11=Protect us Jah
TTITLE12=Love is flowing
TTITLE13=Me or you
TTITLE14=Promise
EXTD=SLY and ROBBIE, DEAN FRASER, DAVID MADDEN, BONGO HERMAN, DALTON BROWNE GTAR\nDANNY DENNIS BASS\nMELBOURNE MILLER DRUMS\nBOBBY "DIGITAL" DIXON PROD YEAR: 1997 ID3G: 16
EXTT0=
EXTT1=
EXTT2=
EXTT3=
EXTT4=
EXTT5=
EXTT6=
EXTT7=
EXTT8=
EXTT9=
EXTT10=
EXTT11=
EXTT12=
EXTT13=
EXTT14=
PLAYORDER=
